<svg width="187" height="40" viewBox="0 0 187 40" fill="none" xmlns="http://www.w3.org/2000/svg">
<circle cx="24.5756" cy="6.269" r="6.144" fill="#D9E6E4"/>
<path d="M45.0557 17.9693C45.0557 24.6655 30.2188 26.1534 23.2315 26.1534C16.2441 26.1534 4.0957 24.6655 4.0957 17.9693C4.0957 11.2731 11.6491 17.5148 18.6365 17.5148C25.6239 17.5148 45.0557 11.2731 45.0557 17.9693Z" fill="#B1CCC8"/>
<path d="M49.152 31.7947C49.152 38.4062 31.3477 39.8753 22.9629 39.8753C14.5781 39.8753 0 38.4062 0 31.7947C0 25.1831 21.9256 30.9197 30.3104 30.9197C38.6952 30.9197 49.152 25.1831 49.152 31.7947Z" fill="#03594E"/>
<path d="M69.8965 32.48C68.2645 32.48 66.7925 32.2027 65.4805 31.648C64.1791 31.0933 63.1018 30.304 62.2485 29.28C61.4058 28.2453 60.8565 27.024 60.6005 25.616L63.5445 25.152C63.9178 26.6027 64.6911 27.7387 65.8645 28.56C67.0485 29.3707 68.4405 29.776 70.0405 29.776C71.0751 29.776 72.0085 29.616 72.8405 29.296C73.6831 28.9653 74.3498 28.496 74.8405 27.888C75.3311 27.28 75.5765 26.56 75.5765 25.728C75.5765 25.216 75.4858 24.7787 75.3045 24.416C75.1338 24.0427 74.8938 23.728 74.5845 23.472C74.2858 23.2053 73.9445 22.9813 73.5605 22.8C73.1765 22.6187 72.7765 22.4693 72.3605 22.352L66.4885 20.608C65.8485 20.416 65.2298 20.176 64.6325 19.888C64.0351 19.5893 63.5018 19.2213 63.0325 18.784C62.5631 18.336 62.1898 17.8027 61.9125 17.184C61.6351 16.5547 61.4965 15.8133 61.4965 14.96C61.4965 13.5947 61.8485 12.432 62.5525 11.472C63.2671 10.5013 64.2325 9.76 65.4485 9.248C66.6645 8.736 68.0351 8.48533 69.5605 8.496C71.1071 8.50667 72.4885 8.784 73.7045 9.328C74.9311 9.86133 75.9445 10.6293 76.7445 11.632C77.5551 12.6347 78.0991 13.8347 78.3765 15.232L75.3525 15.76C75.1925 14.8213 74.8351 14.016 74.2805 13.344C73.7365 12.6613 73.0538 12.1387 72.2325 11.776C71.4111 11.4027 70.5098 11.2107 69.5285 11.2C68.5898 11.1893 67.7418 11.3387 66.9845 11.648C66.2271 11.9573 65.6245 12.3893 65.1765 12.944C64.7285 13.488 64.5045 14.1173 64.5045 14.832C64.5045 15.536 64.7071 16.1067 65.1125 16.544C65.5178 16.9707 66.0138 17.312 66.6005 17.568C67.1978 17.8133 67.7791 18.016 68.3445 18.176L72.7285 19.44C73.2298 19.5787 73.8058 19.7707 74.4565 20.016C75.1178 20.2613 75.7578 20.608 76.3765 21.056C76.9951 21.4933 77.5071 22.08 77.9125 22.816C78.3178 23.5413 78.5205 24.4587 78.5205 25.568C78.5205 26.6773 78.2965 27.664 77.8485 28.528C77.4111 29.392 76.7978 30.1173 76.0085 30.704C75.2191 31.28 74.3018 31.7173 73.2565 32.016C72.2111 32.3253 71.0911 32.48 69.8965 32.48ZM89.3647 32.48C87.6687 32.48 86.1861 32.1067 84.9167 31.36C83.6581 30.6027 82.6767 29.552 81.9727 28.208C81.2687 26.8533 80.9167 25.2747 80.9167 23.472C80.9167 21.584 81.2634 19.952 81.9567 18.576C82.6501 17.1893 83.6154 16.1227 84.8527 15.376C86.1007 14.6187 87.5621 14.24 89.2367 14.24C90.9754 14.24 92.4527 14.64 93.6687 15.44C94.8954 16.24 95.8127 17.3813 96.4207 18.864C97.0394 20.3467 97.3061 22.112 97.2207 24.16H94.3407V23.136C94.3087 21.0133 93.8767 19.4293 93.0447 18.384C92.2127 17.328 90.9754 16.8 89.3327 16.8C87.5727 16.8 86.2341 17.3653 85.3167 18.496C84.3994 19.6267 83.9407 21.248 83.9407 23.36C83.9407 25.3973 84.3994 26.976 85.3167 28.096C86.2341 29.216 87.5407 29.776 89.2367 29.776C90.3781 29.776 91.3701 29.5147 92.2127 28.992C93.0554 28.4693 93.7167 27.7173 94.1967 26.736L96.9327 27.68C96.2607 29.2053 95.2474 30.3893 93.8927 31.232C92.5487 32.064 91.0394 32.48 89.3647 32.48ZM82.9807 24.16V21.872H95.7487V24.16H82.9807ZM100.783 32V14.72H103.327V18.896L102.911 18.352C103.114 17.8187 103.375 17.328 103.695 16.88C104.026 16.432 104.394 16.064 104.799 15.776C105.247 15.4133 105.754 15.136 106.319 14.944C106.884 14.752 107.46 14.64 108.047 14.608C108.634 14.5653 109.183 14.6027 109.695 14.72V17.392C109.098 17.232 108.442 17.1893 107.727 17.264C107.012 17.3387 106.351 17.6 105.743 18.048C105.188 18.4427 104.756 18.9227 104.447 19.488C104.148 20.0533 103.94 20.6667 103.823 21.328C103.706 21.9787 103.647 22.6453 103.647 23.328V32H100.783ZM119.896 32.48C118.2 32.48 116.717 32.1067 115.448 31.36C114.189 30.6027 113.208 29.552 112.504 28.208C111.8 26.8533 111.448 25.2747 111.448 23.472C111.448 21.584 111.795 19.952 112.488 18.576C113.181 17.1893 114.147 16.1227 115.384 15.376C116.632 14.6187 118.093 14.24 119.768 14.24C121.507 14.24 122.984 14.64 124.2 15.44C125.427 16.24 126.344 17.3813 126.952 18.864C127.571 20.3467 127.837 22.112 127.752 24.16H124.872V23.136C124.84 21.0133 124.408 19.4293 123.576 18.384C122.744 17.328 121.507 16.8 119.864 16.8C118.104 16.8 116.765 17.3653 115.848 18.496C114.931 19.6267 114.472 21.248 114.472 23.36C114.472 25.3973 114.931 26.976 115.848 28.096C116.765 29.216 118.072 29.776 119.768 29.776C120.909 29.776 121.901 29.5147 122.744 28.992C123.587 28.4693 124.248 27.7173 124.728 26.736L127.464 27.68C126.792 29.2053 125.779 30.3893 124.424 31.232C123.08 32.064 121.571 32.48 119.896 32.48ZM113.512 24.16V21.872H126.28V24.16H113.512ZM143.149 32V23.344C143.149 22.5227 143.075 21.7333 142.925 20.976C142.787 20.2187 142.536 19.5413 142.173 18.944C141.821 18.336 141.341 17.856 140.733 17.504C140.136 17.152 139.379 16.976 138.461 16.976C137.747 16.976 137.096 17.0987 136.509 17.344C135.933 17.5787 135.437 17.9413 135.021 18.432C134.605 18.9227 134.28 19.5413 134.045 20.288C133.821 21.024 133.709 21.8933 133.709 22.896L131.837 22.32C131.837 20.6453 132.136 19.2107 132.733 18.016C133.341 16.8107 134.189 15.888 135.277 15.248C136.376 14.5973 137.667 14.272 139.149 14.272C140.269 14.272 141.224 14.448 142.013 14.8C142.803 15.152 143.459 15.6213 143.981 16.208C144.504 16.784 144.915 17.4347 145.213 18.16C145.512 18.8747 145.72 19.6053 145.837 20.352C145.965 21.088 146.029 21.7867 146.029 22.448V32H143.149ZM130.829 32V14.72H133.389V19.344H133.709V32H130.829ZM150.509 11.664V8.72H153.357V11.664H150.509ZM150.509 32V14.72H153.357V32H150.509ZM167.806 32C166.782 32.2027 165.769 32.2827 164.766 32.24C163.774 32.208 162.889 32.0107 162.11 31.648C161.331 31.2747 160.739 30.6987 160.334 29.92C159.993 29.2373 159.806 28.5493 159.774 27.856C159.753 27.152 159.742 26.3573 159.742 25.472V9.92H162.59V25.344C162.59 26.048 162.595 26.6507 162.606 27.152C162.627 27.6533 162.739 28.0853 162.942 28.448C163.326 29.1307 163.934 29.5307 164.766 29.648C165.609 29.7653 166.622 29.7333 167.806 29.552V32ZM156.238 17.072V14.72H167.806V17.072H156.238ZM173.245 39.68L176.589 30.592L176.637 33.28L169.085 14.72H172.077L177.997 29.648H176.973L182.525 14.72H185.421L176.013 39.68H173.245Z" fill="#03594E"/>
</svg>
